<svg xmlns="http://www.w3.org/2000/svg" id="free" viewBox="0 0 512 512">
  <path fill="#84cc16" d="M224,224H208v21.333h16A10.667,10.667,0,0,0,224,224Z"></path>
  <path fill="#84cc16" d="M480.641,228.773l-37.13-43.568a20.5,20.5,0,0,1-4.859-11.742l-4.557-57.057a41.8,41.8,0,0,0-38.5-38.5l-57.057-4.552a20.528,20.528,0,0,1-11.75-4.865L283.224,31.362v0a41.8,41.8,0,0,0-54.448,0L185.214,68.484a20.514,20.514,0,0,1-11.75,4.867L116.406,77.9a41.806,41.806,0,0,0-38.505,38.5l-4.547,57.055a20.523,20.523,0,0,1-4.87,11.747L31.359,228.773a41.8,41.8,0,0,0,0,54.453l37.13,43.568a20.5,20.5,0,0,1,4.859,11.742l4.557,57.057a41.8,41.8,0,0,0,38.5,38.5l57.057,4.552a20.528,20.528,0,0,1,11.75,4.865l43.562,37.128a41.8,41.8,0,0,0,54.448,0l43.562-37.122a20.514,20.514,0,0,1,11.75-4.867l57.057-4.552a41.806,41.806,0,0,0,38.505-38.5l4.547-57.055a20.523,20.523,0,0,1,4.87-11.747l37.125-43.565A41.8,41.8,0,0,0,480.641,228.773ZM165.333,224H138.667v21.333H160a10.667,10.667,0,0,1,0,21.333H138.667v32a10.667,10.667,0,1,1-21.333,0V213.333A10.667,10.667,0,0,1,128,202.667h37.333a10.667,10.667,0,1,1,0,21.333Zm65.526,41.927,22.5,25.714a10.667,10.667,0,0,1-16.052,14.052L208,272.2v26.469a10.667,10.667,0,1,1-21.333,0V213.333a10.667,10.667,0,0,1,10.667-10.667H224a32,32,0,0,1,6.859,63.26Zm78.474-20.594a10.667,10.667,0,0,1,0,21.333H288V288h26.667a10.667,10.667,0,0,1,0,21.333H277.333a10.667,10.667,0,0,1-10.667-10.667V213.333a10.667,10.667,0,0,1,10.667-10.667h37.333a10.667,10.667,0,0,1,0,21.333H288v21.333Zm69.333,0a10.667,10.667,0,1,1,0,21.333H357.333V288H384a10.667,10.667,0,0,1,0,21.333H346.667A10.667,10.667,0,0,1,336,298.667V213.333a10.667,10.667,0,0,1,10.667-10.667H384A10.667,10.667,0,0,1,384,224H357.333v21.333Z"></path>
</svg>
